<?xml version="1.0" standalone="no"?>
<!DOCTYPE svg PUBLIC "-//W3C//DTD SVG 20010904//EN"
 "http://www.w3.org/TR/2001/REC-SVG-20010904/DTD/svg10.dtd">
<svg version="1.0" xmlns="http://www.w3.org/2000/svg"
 width="375.000000pt" height="375.000000pt" viewBox="0 0 375.000000 375.000000"
 preserveAspectRatio="xMidYMid meet">
<metadata>
Created by potrace 1.11, written by Peter Selinger 2001-2013
</metadata>
<g transform="translate(0.000000,375.000000) scale(0.100000,-0.100000)"
fill="#000000" stroke="none">
<path d="M438 3735 c-193 -53 -351 -201 -415 -388 l-23 -69 0 -1401 c0 -1523
-3 -1446 56 -1562 63 -124 159 -216 293 -279 l66 -31 1460 0 1460 0 65 31
c169 80 283 212 334 383 14 49 16 196 16 1451 0 1255 -2 1402 -16 1451 -60
203 -222 362 -421 413 -54 14 -216 16 -1444 15 -1100 -1 -1394 -3 -1431 -14z
m1786 -527 c18 -17 157 -346 501 -1188 263 -641 490 -1195 505 -1232 l29 -67
-20 -25 -20 -26 -265 0 -264 0 -29 28 c-22 21 -62 112 -175 398 -99 250 -154
378 -171 394 l-24 23 -373 -2 c-205 -1 -433 -4 -507 -8 -119 -5 -136 -8 -160
-29 -21 -18 -64 -111 -176 -381 -119 -289 -154 -364 -181 -390 l-34 -33 -133
0 c-120 0 -136 2 -152 20 -10 11 -15 28 -13 42 5 19 987 2184 1064 2343 38 78
49 83 287 120 264 41 279 41 311 13z"/>
<path d="M1774 2762 c-10 -6 -387 -904 -401 -954 -3 -9 5 -26 16 -37 21 -21
29 -21 400 -21 l380 0 20 26 20 26 -20 51 c-126 319 -353 877 -365 894 -15 24
-30 28 -50 15z"/>
</g>
</svg>
